HIERARCHY
ROOT Hips
{
	OFFSET 0.000000 0.000000 0.000000 
	CHANNELS 6 Xposition Yposition Zposition Zrotation Yrotation Xrotation
	JOINT LeftUpLeg
	{
		OFFSET 1.363060 -1.794630 0.839290 
		CHANNELS 3 Zrotation Yrotation Xrotation
		JOINT LeftLeg
		{
			OFFSET 2.448110 -6.726130 0.000000 
			CHANNELS 3 Zrotation Yrotation Xrotation
			JOINT LeftFoot
			{
				OFFSET 2.562200 -7.039590 0.000000 
				CHANNELS 3 Zrotation Yrotation Xrotation
				JOINT LeftToeBase
				{
					OFFSET 0.157640 -0.433110 2.322550 
					CHANNELS 3 Zrotation Yrotation Xrotation
					End Site
					{
						OFFSET 0.000000 0.000000 0.000000 
					}
				}
			}
		}
	}
	JOINT RightUpLeg
	{
		OFFSET -1.305520 -1.794630 0.839290 
		CHANNELS 3 Zrotation Yrotation Xrotation
		JOINT RightLeg
		{
			OFFSET -2.542530 -6.985550 0.000000 
			CHANNELS 3 Zrotation Yrotation Xrotation
			JOINT RightFoot
			{
				OFFSET -2.568260 -7.056230 0.000000 
				CHANNELS 3 Zrotation Yrotation Xrotation
				JOINT RightToeBase
				{
					OFFSET -0.164730 -0.452590 2.363150 
					CHANNELS 3 Zrotation Yrotation Xrotation
					End Site
					{
						OFFSET 0.000000 0.000000 0.000000 
					}
				}
			}
		}
	}
	JOINT Spine
	{
		OFFSET 0.028270 2.035590 -0.193380 
		CHANNELS 3 Zrotation Yrotation Xrotation
		JOINT Spine1
		{
			OFFSET 0.056720 2.048850 -0.042750 
			CHANNELS 3 Zrotation Yrotation Xrotation
			JOINT Neck1
			{
				OFFSET -0.054170 1.746240 0.172020 
				CHANNELS 3 Zrotation Yrotation Xrotation
				JOINT Head
				{
					OFFSET 0.104070 1.761360 -0.123970 
					CHANNELS 3 Zrotation Yrotation Xrotation
					End Site
					{
						OFFSET 0.000000 0.000000 0.000000 
					}
				}
			}
			JOINT LeftArm
			{
				OFFSET 3.362410 1.200890 -0.311210 
				CHANNELS 3 Zrotation Yrotation Xrotation
				JOINT LeftForeArm
				{
					OFFSET 4.983000 -0.000000 -0.000000 
					CHANNELS 3 Zrotation Yrotation Xrotation
					JOINT LeftHand
					{
						OFFSET 3.483560 -0.000000 -0.000000 
						CHANNELS 3 Zrotation Yrotation Xrotation
						JOINT LeftHandIndex1
						{
							OFFSET 0.715260 -0.000000 -0.000000 
							CHANNELS 3 Zrotation Yrotation Xrotation
							End Site
							{
								OFFSET 0.000000 0.000000 0.000000 
							}
						}
					}
				}
			}
			JOINT RightArm
			{
				OFFSET -3.136600 1.374050 -0.404650 
				CHANNELS 3 Zrotation Yrotation Xrotation
				JOINT RightForeArm
				{
					OFFSET -5.241900 -0.000000 -0.000000 
					CHANNELS 3 Zrotation Yrotation Xrotation
					JOINT RightHand
					{
						OFFSET -3.444170 -0.000000 -0.000000 
						CHANNELS 3 Zrotation Yrotation Xrotation
						JOINT RightHandIndex1
						{
							OFFSET -0.622530 -0.000000 -0.000000 
							CHANNELS 3 Zrotation Yrotation Xrotation
							End Site
							{
								OFFSET 0.000000 0.000000 0.000000 
							}
						}
					}
				}
			}
		}
	}
}
MOTION
Frames: 13
Frame Time: 0.041667
0.984882 17.855940 -31.462123 2.941473 3.305530 3.924894 -17.282361 -6.729106 4.174069 -0.948376 4.566283 20.790847 2.287613 -7.092688 10.874080 0.697700 -5.339300 -14.878800 9.652669 12.880662 -31.785476 0.440438 -6.594505 18.175756 4.132040 -16.261254 15.911835 -0.000700 0.166400 -0.457200 3.023428 -3.059941 2.315415 5.231950 -2.011264 -5.632017 3.318959 -4.547704 16.449176 -0.412900 -1.864700 9.798900 -73.996111 -10.563398 33.465566 15.869005 -26.258769 -4.257515 -1.193710 -1.253332 -7.661076 -7.125000 0.000000 0.000000 75.099744 -3.206748 4.051112 -8.726571 19.804439 -2.062872 1.209668 -0.819266 7.135289 7.125000 0.000000 0.000000 
0.976357 17.903231 -31.223540 2.174564 4.374153 3.753733 -16.176318 -7.952186 4.439171 -0.827281 4.970858 21.836779 2.422263 -7.633339 12.867014 0.699300 -5.345300 -14.896200 10.366702 12.545519 -31.279184 0.381634 -6.724364 18.729770 3.964155 -15.785723 15.989425 -0.005600 -0.485000 1.332700 4.042764 -4.468369 1.114865 6.278944 -2.600026 -6.826125 3.678605 -3.186955 15.541190 0.231800 -1.390100 8.631200 -75.671774 -6.846126 30.852472 16.016791 -26.490217 -4.335682 -1.198550 -1.223813 -6.728643 -7.125000 0.000000 0.000000 72.967724 -5.996419 6.451032 -8.460670 19.721169 -1.994604 1.246120 -0.809263 6.932023 7.125000 0.000000 0.000000 
0.967122 17.936415 -31.001396 1.523622 4.248670 3.581315 -15.562420 -8.223661 4.204606 -0.598798 5.474319 23.281758 2.498096 -8.025198 14.796048 0.714700 -5.402500 -15.060100 11.155982 12.529487 -30.869386 0.320173 -6.845993 19.410018 3.387455 -14.466114 16.944227 -0.044500 -1.361500 3.744000 3.460374 -3.659555 2.036960 4.746638 -2.305807 -5.854425 3.564706 -4.315250 16.485671 -0.198000 -1.773000 9.623400 -74.663403 -9.203647 32.271362 15.714221 -26.054557 -4.183312 -1.188343 -1.204076 -6.790427 -7.125000 0.000000 0.000000 74.729873 -3.791635 3.422544 -8.284290 19.147315 -1.898191 1.205581 -0.848836 8.020541 7.125000 0.000000 0.000000 
0.954336 17.956204 -30.779962 1.202413 3.904958 3.454217 -15.279746 -8.029868 3.811224 -0.359656 5.917934 24.703560 2.586709 -8.571272 17.066688 0.840600 -5.848300 -16.344800 11.854104 12.318717 -30.690418 0.226209 -7.036785 20.148112 2.903532 -13.521208 18.194476 -0.057500 -1.547000 4.255200 3.785144 -3.786513 1.319344 5.007047 -2.313791 -6.728285 3.622657 -3.867622 15.800635 -0.006600 -1.638100 8.881800 -75.357381 -7.040641 31.385457 15.664447 -26.013345 -4.162631 -1.177934 -1.172251 -6.423002 -7.125000 0.000000 0.000000 73.960741 -5.406284 3.759435 -7.982820 18.806761 -1.798248 1.232971 -0.836506 8.309006 7.125000 0.000000 0.000000 
0.941752 17.957422 -30.554977 1.092499 3.614474 3.362948 -15.209714 -7.853073 3.459392 -0.074215 6.410305 26.291755 2.638898 -8.978832 19.445213 0.891700 -6.018900 -16.839100 12.423311 11.813493 -30.636609 0.122157 -7.259388 20.934583 2.537696 -12.721839 18.915669 -0.099000 -2.028800 5.585400 3.427213 -3.332738 1.909725 4.293563 -2.138967 -6.035061 3.362502 -4.421080 16.424659 -0.337300 -1.821500 9.565700 -74.961202 -8.334930 31.860977 15.402404 -25.640652 -4.034404 -1.189496 -1.144060 -6.565702 -7.125000 0.000000 0.000000 74.847611 -3.672484 1.385301 -7.687785 18.122916 -1.666303 1.203628 -0.904273 9.587207 7.125000 0.000000 0.000000 
0.924703 17.959046 -30.337095 0.913169 3.073983 3.260084 -15.069178 -7.410810 2.920477 0.247962 6.920479 27.975244 2.696934 -9.320397 22.279428 0.799800 -5.708100 -15.939800 13.059344 11.669731 -30.470461 0.008536 -7.461994 21.759433 2.250269 -11.885872 19.030696 -0.152400 -2.515400 6.932400 3.839752 -3.493726 1.462369 4.821537 -2.172919 -6.535729 3.322429 -3.862101 15.988796 -0.157800 -1.642800 9.112800 -75.826364 -6.702411 30.630257 15.355151 -25.601476 -4.013688 -1.214971 -1.165778 -6.311848 -7.125000 0.000000 0.000000 73.928764 -4.609248 1.716853 -7.460036 17.867977 -1.596267 1.203896 -0.930600 10.060700 7.125000 0.000000 0.000000 
0.907147 17.982691 -30.123577 0.704897 2.591952 3.144226 -14.861708 -6.976778 2.058325 0.535349 7.428940 29.645148 2.892882 -9.998501 26.984534 0.249900 -3.216900 -8.883100 13.665494 11.483711 -30.189463 -0.093654 -7.625862 22.481066 2.017721 -11.153797 19.031008 -0.192000 -2.822000 7.783600 3.941321 -3.361220 1.393327 4.844770 -2.094914 -6.652285 3.335511 -3.713944 16.273316 -0.123300 -1.569500 9.245900 -76.050141 -6.043977 30.443658 15.391394 -25.659082 -4.030764 -1.205833 -1.180286 -6.666506 -7.125000 0.000000 0.000000 73.724540 -4.914635 1.840071 -7.430705 17.861883 -1.596591 1.178904 -0.941020 10.103900 7.125000 0.000000 0.000000 
0.886140 18.019326 -29.908334 0.598523 2.226735 3.023115 -14.761510 -6.667523 1.046435 0.863714 7.977022 31.462463 3.133077 -11.192899 30.257689 0.381200 -3.965000 -10.978300 14.031764 11.515346 -29.669223 -0.174826 -7.710539 22.963509 1.880011 -10.705297 19.100563 -0.356700 -3.837100 10.618900 3.872387 -3.121801 1.327864 4.688064 -1.966414 -6.851949 3.433122 -3.823269 16.833959 -0.118300 -1.581100 9.547500 -76.072119 -5.472846 30.603721 15.485303 -25.794774 -4.075662 -1.187674 -1.192271 -6.810593 -7.125000 0.000000 0.000000 73.877557 -4.968896 1.100449 -7.322929 17.667269 -1.560575 1.156592 -0.961322 10.387864 7.125000 0.000000 0.000000 
0.865945 18.050785 -29.702022 0.365879 1.847455 2.880804 -14.595343 -6.503452 0.085589 1.242208 8.555028 33.389661 3.310101 -12.451703 32.284275 0.709500 -5.383300 -15.005100 14.494788 11.637274 -28.993593 -0.198503 -7.682189 23.158137 1.757578 -10.263912 19.103019 -0.350200 -3.802000 10.520200 4.006142 -3.125942 1.195818 4.722366 -1.944693 -6.978149 3.469871 -3.654289 16.543579 -0.040200 -1.530400 9.300200 -76.340900 -4.554849 30.348437 15.543487 -25.901814 -4.103784 -1.181847 -1.277950 -6.904609 -7.125000 0.000000 0.000000 73.545156 -5.157011 1.103976 -7.133510 17.386295 -1.498478 1.145251 -0.978172 10.669108 7.125000 0.000000 0.000000 
0.843213 18.077171 -29.499667 -0.153765 1.729736 2.775212 -14.003174 -6.589592 -0.804046 1.739696 9.207658 35.288944 3.386849 -11.766763 35.314211 0.413700 -4.128700 -11.439000 15.293752 11.598027 -28.353034 -0.207348 -7.632708 23.305499 1.654140 -9.833678 18.973351 -0.484500 -4.463500 12.384300 4.289789 -3.565151 1.129917 4.757277 -2.145760 -6.548022 3.767663 -3.046739 15.257587 0.234600 -1.305200 8.409400 -76.769477 -3.417894 29.114369 15.454964 -25.797828 -4.061988 -1.146994 -1.300305 -6.818771 -7.125000 0.000000 0.000000 72.963159 -5.543033 2.388792 -7.012660 17.268223 -1.460371 1.160685 -0.966679 10.750329 7.125000 0.000000 0.000000 
0.822511 18.134305 -29.291020 -0.548585 1.719132 2.652829 -13.593148 -6.423620 -2.517322 2.351327 9.919116 37.145369 3.545155 -10.073932 39.425207 0.012400 -0.719200 -1.976400 15.846272 11.432479 -27.552187 -0.186121 -7.516049 23.209511 1.635023 -9.689656 18.954730 -0.684300 -5.288800 14.734200 3.965691 -2.797965 1.554622 4.013038 -1.794557 -6.532731 3.422006 -4.073808 16.624054 -0.218000 -1.674800 9.539200 -76.132853 -4.906492 30.989740 15.170430 -25.391372 -3.920454 -1.118817 -1.326431 -7.314308 -7.125000 0.000000 0.000000 73.980298 -4.173554 0.420336 -7.063984 17.172462 -1.465252 1.123276 -0.999575 10.857352 7.125000 0.000000 0.000000 
0.808912 18.156529 -29.093739 -0.772675 1.813233 2.593956 -13.331968 -6.862291 -3.068166 2.976774 10.582061 39.327869 3.606160 -10.002172 40.688886 0.048200 1.417400 3.898000 16.224333 11.398123 -26.820185 -0.167635 -7.401740 23.008344 1.747596 -9.968882 18.971279 -0.845000 -5.863100 16.387800 4.274788 -2.872210 1.155715 4.325991 -1.795663 -7.107887 3.502245 -3.971899 16.491174 -0.092800 -1.663700 9.286900 -76.797308 -3.734305 30.760541 15.110025 -25.316724 -3.890221 -1.110495 -1.346001 -7.105370 -7.125000 0.000000 0.000000 73.257691 -4.985670 1.502587 -7.069688 17.289699 -1.473022 1.162956 -0.971490 10.057494 7.125000 0.000000 0.000000 
0.792574 18.205647 -28.897778 -1.236014 1.728012 2.449403 -12.917504 -6.937413 -4.440048 3.518513 11.212433 41.464556 3.766210 -10.979746 42.129568 0.069800 1.705000 4.691000 16.884431 11.388669 -25.939698 -0.147435 -7.260779 22.844952 1.785251 -9.990726 18.972181 -0.822100 -5.785000 16.162000 4.449889 -2.813065 1.236599 4.257826 -1.752232 -7.020071 3.430450 -3.964347 16.285102 -0.124500 -1.673200 9.205000 -77.109382 -3.575913 30.684533 15.003209 -25.152518 -3.836938 -1.085383 -1.319460 -6.926980 -7.125000 0.000000 0.000000 73.006668 -4.642341 1.821448 -7.017913 17.199776 -1.451513 1.172338 -0.973210 9.996791 7.125000 0.000000 0.000000 
